# xmcd
#
# Track frame offsets:
# 150
# 33372
# 62981
# 96042
# 137612
# 176084
# 197295
# 221320
# 321636
#
# Disc length: 4684 seconds
#
# Revision: 0
# Processed by: cddbd v1.5.2PL0 Copyright (c) Steve Scherf et al.
# Submitted via: Audion 3.0.2 (http://www.panic.com/audion/)
#
DISCID=7e124a09
DTITLE=Widespread Panic - New Year's Vacation Shows(live) [Dec 30th and 31st, 2003] Disc 6
DYEAR=1900
DGENRE=
TTITLE0=Ribs and Whiskey
TTITLE1=Thought Sausage
TTITLE2=Life During Wartime
TTITLE3=Blight
TTITLE4=Get In, Get Out
TTITLE5=Tall Boy
TTITLE6=Action Man
TTITLE7=Driving Song/Vacation/Driving Song
TTITLE8=Makes Sense to Me
EXTD=
EXTT0=
EXTT1=
EXTT2=
EXTT3=
EXTT4=
EXTT5=
EXTT6=
EXTT7=
EXTT8=
PLAYORDER=
